<svg width="60" height="60" viewBox="0 0 60 60" fill="none" xmlns="http://www.w3.org/2000/svg">
<circle cx="30" cy="30" r="30" fill="#8A6FA5"/>
<g clip-path="url(#clip0)">
<path d="M30 15V22.5L40 12.5L30 2.5V10C18.95 10 10 18.95 10 30C10 33.925 11.15 37.575 13.1 40.65L16.75 37C15.625 34.925 15 32.525 15 30C15 21.725 21.725 15 30 15ZM46.9 19.35L43.25 23C44.35 25.1 45 27.475 45 30C45 38.275 38.275 45 30 45V37.5L20 47.5L30 57.5V50C41.05 50 50 41.05 50 30C50 26.075 48.85 22.425 46.9 19.35V19.35Z" fill="#E8DEEC"/>
</g>
<defs>
<clipPath id="clip0">
<rect width="55" height="55" fill="white" transform="translate(3)"/>
</clipPath>
</defs>
</svg>
