<svg width="60" height="60" viewBox="0 0 60 60" fill="none" xmlns="http://www.w3.org/2000/svg">
<circle cx="30" cy="30" r="30" fill="#8A6FA5"/>
<path d="M43.2438 16.3921C39.5084 12.6567 34.2146 10.5025 28.3938 11.0984C19.9834 11.9463 13.0626 18.7754 12.123 27.1859C10.8626 38.3004 19.4563 47.6734 30.2959 47.6734C37.6063 47.6734 43.8855 43.3879 46.8188 37.2234C47.5521 35.6879 46.4521 33.9234 44.7563 33.9234C43.9084 33.9234 43.1063 34.3817 42.7396 35.1379C40.1501 40.7067 33.9396 44.2359 27.1563 42.7234C22.0688 41.6004 17.9667 37.4525 16.8896 32.365C14.9646 23.4734 21.7251 15.59 30.2959 15.59C34.1001 15.59 37.4917 17.1713 39.9667 19.6692L36.5063 23.1296C35.0626 24.5734 36.0709 27.0484 38.1105 27.0484H46.3376C47.598 27.0484 48.6292 26.0171 48.6292 24.7567V16.5296C48.6292 14.49 46.1542 13.4588 44.7105 14.9025L43.2438 16.3921Z" fill="#E8DEEC"/>
</svg>